<svg xmlns="http://www.w3.org/2000/svg" viewBox="0 0 55 55" width="55" height="55">
	<style>
		tspan { white-space:pre }
		.shp0 { fill: #000000 } 
	</style>
	<g id="Capa 1">
		<path id="&lt;Compound Path&gt;" fill-rule="evenodd" class="shp0" d="M55 6L55 36.11C55 37.88 53.56 39.32 51.79 39.32L50.2 39.32C49.24 43.37 47.07 46.25 45.18 48.09C42.41 50.78 39.24 52.21 38.02 52.21C36.79 52.21 33.62 50.78 30.85 48.09C28.96 46.25 26.79 43.37 25.83 39.32L3.21 39.32C1.44 39.32 0 37.88 0 36.11L0 6C0 4.23 1.44 2.79 3.21 2.79L51.79 2.79C53.56 2.79 55 4.23 55 6ZM2.15 15.68L52.85 15.68L52.85 11.39L2.15 11.39L2.15 15.68ZM2.15 6L2.15 9.24L52.85 9.24L52.85 6C52.85 5.42 52.38 4.94 51.79 4.94L3.21 4.94C2.62 4.94 2.15 5.42 2.15 6ZM48.55 34.91L48.55 29.62C44.94 28.57 41.32 27.04 38.02 25.17C34.64 27.09 31.18 28.55 27.48 29.62L27.48 34.91C27.48 40.57 30.09 44.33 32.28 46.48C34.88 49.03 37.55 50.03 38.02 50.06C38.48 50.03 41.15 49.03 43.75 46.48C45.94 44.33 48.55 40.57 48.55 34.91ZM52.85 36.11L52.85 17.83L2.15 17.83L2.15 36.11C2.15 36.69 2.62 37.17 3.21 37.17L25.46 37.17C25.37 36.45 25.33 35.7 25.33 34.91L25.33 28.81C25.33 28.32 25.65 27.9 26.12 27.77C30.14 26.68 33.85 25.12 37.47 23C37.81 22.8 38.22 22.8 38.56 23C42.08 25.06 46.01 26.71 49.91 27.77C50.38 27.9 50.7 28.32 50.7 28.81L50.7 34.91C50.7 35.7 50.66 36.45 50.58 37.17L51.79 37.17C52.38 37.17 52.85 36.69 52.85 36.11Z" />
		<path id="&lt;Compound Path&gt;" fill-rule="evenodd" class="shp0" d="M17.72 30.19C17.72 32.85 15.56 35.02 12.89 35.02C12.24 35.02 11.6 34.89 11.01 34.64C10.43 34.88 9.8 35.02 9.13 35.02C6.47 35.02 4.3 32.85 4.3 30.19C4.3 27.52 6.47 25.35 9.13 25.35C9.8 25.35 10.43 25.49 11.01 25.73C11.6 25.48 12.24 25.35 12.89 25.35C15.56 25.35 17.72 27.52 17.72 30.19ZM9.13 32.87C10.61 32.87 11.82 31.67 11.82 30.19C11.82 28.7 10.61 27.5 9.13 27.5C7.65 27.5 6.45 28.7 6.45 30.19C6.45 31.67 7.65 32.87 9.13 32.87ZM15.58 30.19C15.58 28.79 14.51 27.65 13.16 27.51C13.67 28.28 13.96 29.2 13.96 30.19C13.96 31.17 13.67 32.09 13.16 32.86C14.51 32.72 15.58 31.58 15.58 30.19Z" />
		<path id="&lt;Path&gt;" class="shp0" d="M42.39 33.6L36.65 39.35L33.64 36.33C33.22 35.92 32.54 35.92 32.12 36.33C31.7 36.75 31.7 37.43 32.12 37.85L35.89 41.62C36.1 41.83 36.37 41.94 36.65 41.94C36.92 41.94 37.2 41.83 37.41 41.62L43.91 35.12C44.33 34.7 44.33 34.02 43.91 33.6C43.49 33.18 42.81 33.18 42.39 33.6Z" />
	</g>
</svg>